<?xml version="1.0" encoding="iso-8859-1"?>
<!-- Generator: Adobe Illustrator 19.0.0, SVG Export Plug-In . SVG Version: 6.00 Build 0)  -->
<svg version="1.1" id="Layer_3" xmlns="http://www.w3.org/2000/svg" xmlns:xlink="http://www.w3.org/1999/xlink" x="0px" y="0px"
	 viewBox="0 0 512 512" style="enable-background:new 0 0 512 512;" xml:space="preserve">
<g>
	<g>
		<rect x="347.459" y="67.697" style="fill:#C6C6C6;" width="7.872" height="52.575"/>
		<rect x="429.832" y="67.697" style="fill:#C6C6C6;" width="7.872" height="52.575"/>
		<rect x="345.621" y="56.312" style="fill:#575756;" width="11.548" height="15.068"/>
		<rect x="427.993" y="56.312" style="fill:#575756;" width="11.549" height="15.068"/>
		<g>
			<path style="fill:#00B6BF;" d="M512,159.704v274.468c0,21.805-17.626,39.431-39.485,39.431H314.467
				c-21.859,0-39.646-17.626-39.646-39.431V159.704c0-21.859,17.787-39.432,39.646-39.432h158.048
				C494.374,120.272,512,137.845,512,159.704z"/>
			<rect x="274.827" y="178.615" style="fill:#F05A48;" width="237.159" height="21.175"/>
			<rect x="323.628" y="120.272" style="fill:#DF4937;" width="14.037" height="353.332"/>
			<rect x="451.995" y="120.272" style="fill:#DF4937;" width="14.251" height="353.332"/>
		</g>
		<path style="fill:#878787;" d="M443.843,63.79c-32.826-11.239-68.458-11.239-101.284,0c-0.337-0.985-0.675-1.971-1.012-2.957
			c-2.601-7.177,2.058-15.428,10.592-17.503c26.977-6.579,55.148-6.579,82.124,0c8.535,2.076,13.191,10.326,10.593,17.503
			C444.518,61.82,444.181,62.805,443.843,63.79z"/>
	</g>
	<g>
		<g>
			<g>
				<circle style="fill:#ABA28E;" cx="141.641" cy="217.559" r="8.036"/>
				<circle style="fill:#ABA28E;" cx="236.068" cy="217.559" r="8.036"/>
			</g>
			<g>
				<circle style="fill:#ABA28E;" cx="141.641" cy="217.559" r="8.036"/>
				<circle style="fill:#ABA28E;" cx="236.068" cy="217.559" r="8.036"/>
			</g>
		</g>
		<g>
			<path style="fill:#755C4D;" d="M358.178,468.246H19.532c-7.828,0-14.174-6.346-14.174-14.174V239.77
				c0-7.828,6.346-14.175,14.174-14.175h338.646c7.828,0,14.174,6.346,14.174,14.175v214.303
				C372.352,461.901,366.005,468.246,358.178,468.246z"/>
			<path style="fill:#634E42;" d="M358.179,473.604H19.532C8.761,473.604,0,464.844,0,454.073V239.77
				c0-10.77,8.761-19.534,19.532-19.534h338.647c10.77,0,19.531,8.763,19.531,19.534v214.303
				C377.709,464.844,368.948,473.604,358.179,473.604z M19.532,230.952c-4.86,0-8.816,3.955-8.816,8.818v214.303
				c0,4.86,3.956,8.816,8.816,8.816h338.647c4.86,0,8.816-3.955,8.816-8.816V239.77c0-4.863-3.956-8.818-8.816-8.818H19.532z"/>
		</g>
		<g>
			<g>
				<path style="fill:#DAD4C6;" d="M120.081,418.26v55.344H80.81v-55.29c0,1.768,0.696,3.482,1.982,4.714l12.697,12.483
					c2.786,2.197,6.697,2.197,9.537,0.054l13.019-12.537C119.384,421.796,120.081,420.082,120.081,418.26z"/>
				<path style="fill:#ABA28E;" d="M120.081,220.244V418.26c0,1.822-0.697,3.536-2.036,4.768l-13.019,12.537
					c-2.84,2.143-6.75,2.143-9.537-0.054l-12.697-12.483c-1.286-1.232-1.982-2.946-1.982-4.714v-198.07H120.081z"/>
				<circle style="fill:#634E42;" cx="100.454" cy="383.865" r="4.195"/>
				<circle style="fill:#634E42;" cx="100.454" cy="457.866" r="4.195"/>
				<circle style="fill:#634E42;" cx="100.454" cy="344.018" r="4.195"/>
				<circle style="fill:#634E42;" cx="100.454" cy="304.171" r="4.195"/>
				<circle style="fill:#634E42;" cx="100.454" cy="264.324" r="4.195"/>
				<path style="fill:#ABA28E;" d="M120.081,405.027v13.233c0,1.822-0.697,3.536-2.036,4.768l-13.019,12.537
					c-2.84,2.143-6.75,2.143-9.537-0.054l-12.697-12.483c-1.286-1.232-1.982-2.946-1.982-4.714v-13.287H120.081z"/>
				<g>
					<path style="fill:#FAEBCB;" d="M114.073,407.082H86.837c-5.538,0-10.045-4.507-10.045-10.045v-26.343
						c0-5.538,4.507-10.046,10.045-10.046h27.236c5.538,0,10.045,4.507,10.045,10.046v26.343
						C124.118,402.574,119.611,407.082,114.073,407.082z M86.837,368.684c-1.107,0-2.009,0.903-2.009,2.009v26.343
						c0,1.106,0.902,2.009,2.009,2.009h27.236c1.106,0,2.009-0.903,2.009-2.009v-26.343c0-1.107-0.903-2.009-2.009-2.009H86.837z"/>
				</g>
				<path style="fill:#B0A28B;" d="M103.166,411.29c0,1.497-1.214,2.711-2.711,2.711l0,0c-1.498,0-2.711-1.214-2.711-2.711v-26.053
					c0-1.498,1.213-2.711,2.711-2.711l0,0c1.498,0,2.711,1.214,2.711,2.711V411.29z"/>
			</g>
			<g>
				<path style="fill:#DAD4C6;" d="M296.881,418.26v55.344H257.61v-55.29c0,1.768,0.696,3.482,1.982,4.714l12.697,12.483
					c2.786,2.197,6.697,2.197,9.537,0.054l13.019-12.537C296.184,421.796,296.881,420.082,296.881,418.26z"/>
				<path style="fill:#ABA28E;" d="M296.881,220.244V418.26c0,1.822-0.696,3.536-2.035,4.768l-13.019,12.537
					c-2.84,2.143-6.75,2.143-9.537-0.054l-12.697-12.483c-1.286-1.232-1.982-2.946-1.982-4.714v-198.07H296.881z"/>
				<circle style="fill:#634E42;" cx="277.254" cy="383.865" r="4.195"/>
				<circle style="fill:#634E42;" cx="277.254" cy="457.866" r="4.195"/>
				<circle style="fill:#634E42;" cx="277.254" cy="344.018" r="4.195"/>
				<circle style="fill:#634E42;" cx="277.254" cy="304.171" r="4.195"/>
				<circle style="fill:#634E42;" cx="277.254" cy="264.324" r="4.195"/>
				<path style="fill:#ABA28E;" d="M296.881,405.027v13.233c0,1.822-0.696,3.536-2.035,4.768l-13.019,12.537
					c-2.84,2.143-6.75,2.143-9.537-0.054l-12.697-12.483c-1.286-1.232-1.982-2.946-1.982-4.714v-13.287H296.881z"/>
				<g>
					<path style="fill:#FAEBCB;" d="M290.873,407.082h-27.236c-5.538,0-10.045-4.507-10.045-10.045v-26.343
						c0-5.538,4.507-10.046,10.045-10.046h27.236c5.538,0,10.045,4.507,10.045,10.046v26.343
						C300.918,402.574,296.411,407.082,290.873,407.082z M263.637,368.684c-1.107,0-2.009,0.903-2.009,2.009v26.343
						c0,1.106,0.903,2.009,2.009,2.009h27.236c1.106,0,2.009-0.903,2.009-2.009v-26.343c0-1.107-0.903-2.009-2.009-2.009H263.637z"
						/>
				</g>
				<path style="fill:#B0A28B;" d="M279.966,411.29c0,1.497-1.214,2.711-2.711,2.711l0,0c-1.498,0-2.711-1.214-2.711-2.711v-26.053
					c0-1.498,1.214-2.711,2.711-2.711l0,0c1.498,0,2.711,1.214,2.711,2.711V411.29z"/>
			</g>
		</g>
		<path style="fill:#ABA28E;" d="M240.755,203.118c-2.475,2.495-7.221,1.512-10.966-1.508c-24.067-19.573-57.801-19.573-81.868,0
			c-3.744,3.02-8.49,4.003-10.966,1.508l0,0c-2.469-2.475-1.128-8.163,3.44-11.868c28.491-23.172,68.428-23.172,96.919,0
			C241.883,194.954,243.224,200.642,240.755,203.118L240.755,203.118z"/>
		<path style="fill:#634E42;" d="M143.985,215.048c0,1.387-1.125,2.511-2.511,2.511l0,0c-1.387,0-2.512-1.124-2.512-2.511v-16.187
			c0-1.387,1.125-2.511,2.512-2.511l0,0c1.387,0,2.511,1.124,2.511,2.511V215.048z"/>
		<path style="fill:#634E42;" d="M238.58,215.048c0,1.387-1.125,2.511-2.511,2.511l0,0c-1.387,0-2.511-1.124-2.511-2.511v-16.187
			c0-1.387,1.124-2.511,2.511-2.511l0,0c1.387,0,2.511,1.124,2.511,2.511V215.048z"/>
		<g>
			<g>
				<circle style="fill:#BC4C18;" cx="335.761" cy="428.905" r="17.6"/>
				<path style="fill:#FAEBCB;" d="M329.609,447.412c-10.206-3.393-15.747-14.454-12.355-24.66
					c3.392-10.205,14.454-15.747,24.659-12.354c10.206,3.392,15.747,14.453,12.354,24.659
					C350.875,445.262,339.814,450.805,329.609,447.412z M340.713,414.01c-8.213-2.731-17.117,1.731-19.847,9.944
					c-2.731,8.214,1.731,17.118,9.944,19.848c8.212,2.73,17.117-1.731,19.847-9.944C353.387,425.644,348.926,416.74,340.713,414.01z
					"/>
			</g>
			<circle style="fill:#FECD57;" cx="335.761" cy="428.905" r="10.465"/>
		</g>
		<g>
			<g>
				<path style="fill:#D9B46D;" d="M204.6,423.547l-58.921-27.918c2.6-5.487,0.259-12.041-5.227-14.641l16.232-34.256
					c5.487,2.6,12.042,0.259,14.641-5.227l58.921,27.918c-2.6,5.487-0.259,12.043,5.227,14.642l-16.232,34.256
					C213.755,415.72,207.199,418.06,204.6,423.547z"/>
				<path style="fill:#7B4E25;" d="M206.042,427.586l-64.402-30.516l1.298-2.74c1.88-3.966,0.181-8.723-3.785-10.603l-2.741-1.298
					l18.828-39.738l2.741,1.298c3.967,1.88,8.723,0.181,10.602-3.785l1.299-2.741l64.401,30.515l-1.298,2.741
					c-1.88,3.966-0.181,8.723,3.785,10.602l2.741,1.298l-18.829,39.738l-2.74-1.298c-3.966-1.879-8.723-0.181-10.603,3.785
					L206.042,427.586z M149.42,394.046l54.034,25.603c3.334-4.29,8.907-6.28,14.204-5.071l13.916-29.37
					c-4.29-3.333-6.28-8.907-5.071-14.204l-54.034-25.603c-3.333,4.29-8.907,6.28-14.204,5.072l-13.915,29.369
					C148.64,383.177,150.629,388.749,149.42,394.046z"/>
			</g>
			<circle style="fill:#FFFCE3;" cx="187.07" cy="384.409" r="21.038"/>
			
				<rect x="151.774" y="378.856" transform="matrix(0.9037 0.4282 -0.4282 0.9037 184.18 -41.8551)" style="fill:#78766D;" width="66.716" height="19.283"/>
		</g>
		<g>
			<g>
				<path style="fill:#FAEBCB;" d="M349.899,332.909c-1.08-0.017-2.152-0.348-3.149-0.951l-30.427-18.408
					c-0.997-0.603-1.787-1.4-2.304-2.348c-1.896-3.099-1.019-7.475,2.541-9.456l3.466-1.9l27.697-15.222
					c4.561-2.509,10.181,0.89,10.075,6.095l-0.63,31.598l-0.074,3.952C356.994,330.342,353.524,333.149,349.899,332.909z"/>
				<path style="fill:#FAEBCB;" d="M350.332,335.602l-0.612-0.019c-1.4-0.021-2.954-0.484-4.359-1.334l-30.424-18.406
					c-1.41-0.853-2.54-2.014-3.272-3.364c-1.256-2.046-1.643-4.714-0.989-7.201c0.662-2.509,2.286-4.594,4.581-5.871l31.175-17.127
					c3.662-2.007,8.452-1.258,11.359,1.709c1.784,1.818,2.737,4.23,2.686,6.788l-0.704,35.544
					C359.643,331.534,355.497,335.602,350.332,335.602z M350.969,286.46c-0.681,0-1.337,0.172-1.955,0.513l-31.165,17.124
					c-0.994,0.552-1.705,1.457-1.99,2.54c-0.285,1.086-0.123,2.24,0.445,3.168c0.353,0.638,0.803,1.088,1.407,1.454l30.424,18.406
					c0.604,0.363,1.214,0.555,1.807,0.565l0.39,2.692v-2.679c1.958,0,4.021-1.51,4.084-4.042l0.703-35.534
					c0.029-1.42-0.612-2.377-1.153-2.932C353.171,286.925,352.078,286.46,350.969,286.46z"/>
			</g>
			<g>
				<path style="fill:#FECD57;" d="M349.899,332.909c-1.08-0.017-2.152-0.348-3.149-0.951l-30.427-18.408
					c-0.997-0.603-1.787-1.4-2.304-2.348c-1.896-3.099-1.019-7.475,2.541-9.456l3.466-1.9l27.697-15.222
					c4.561-2.509,10.181,0.89,10.075,6.095l-0.63,31.598l-0.074,3.952C356.994,330.342,353.524,333.149,349.899,332.909z"/>
				<path style="fill:#FAEBCB;" d="M350.332,335.602l-0.612-0.019c-1.4-0.021-2.954-0.484-4.359-1.334l-30.424-18.406
					c-1.41-0.853-2.54-2.014-3.272-3.364c-1.256-2.046-1.643-4.714-0.989-7.201c0.662-2.509,2.286-4.594,4.581-5.871l31.175-17.127
					c3.662-2.007,8.452-1.258,11.359,1.709c1.784,1.818,2.737,4.23,2.686,6.788l-0.704,35.544
					C359.643,331.534,355.497,335.602,350.332,335.602z M350.969,286.46c-0.681,0-1.337,0.172-1.955,0.513l-31.165,17.124
					c-0.994,0.552-1.705,1.457-1.99,2.54c-0.285,1.086-0.123,2.24,0.445,3.168c0.353,0.638,0.803,1.088,1.407,1.454l30.424,18.406
					c0.604,0.363,1.214,0.555,1.807,0.565l0.39,2.692v-2.679c1.958,0,4.021-1.51,4.084-4.042l0.703-35.534
					c0.029-1.42-0.612-2.377-1.153-2.932C353.171,286.925,352.078,286.46,350.969,286.46z"/>
			</g>
		</g>
		<path style="fill:#2B7771;" d="M349.899,332.909l-35.88-21.706c-1.896-3.099-1.019-7.475,2.541-9.456l3.466-1.9l37.143,22.471
			l-0.074,3.952C356.994,330.342,353.524,333.149,349.899,332.909z"/>
		<circle style="fill:#BC4C18;" cx="342.558" cy="304.536" r="9.109"/>
		<g>
			<g>
				
					<rect x="13.52" y="313.994" transform="matrix(-0.4253 0.9051 -0.9051 -0.4253 362.6945 429.8169)" style="fill:#BC4C18;" width="62.715" height="32.145"/>
				<path style="fill:#FAEBCB;" d="M13.633,352.823l28.821-61.336l33.669,15.821l-28.82,61.336L13.633,352.823z M44.879,298.213
					l-24.521,52.186l24.518,11.521l24.521-52.185L44.879,298.213z"/>
			</g>
			<path style="fill:#2B7771;" d="M32.473,355.695c-1.767-0.83-3.274-1.991-4.505-3.37c-3.564-4.041-4.61-9.96-2.173-15.146
				l12.495-26.59c2.437-5.187,7.661-8.159,13.046-7.995c1.847,0.068,3.703,0.487,5.469,1.318c2.052,0.964,3.762,2.36,5.057,4.046
				c0.916,1.16,1.638,2.439,2.136,3.822c1.208,3.351,1.119,7.17-0.515,10.648l-12.494,26.59c-2.304,4.902-7.092,7.836-12.16,7.959
				C36.691,357.085,34.525,356.659,32.473,355.695z"/>
			
				<rect x="22.05" y="326.565" transform="matrix(-0.4253 0.9051 -0.9051 -0.4253 363.1911 429.3217)" style="fill:#505638;" width="46.465" height="6.823"/>
		</g>
		<g>
			<circle style="fill:#BC4C18;" cx="192.86" cy="280.794" r="24.779"/>
			<path style="fill:#FAEBCB;" d="M199.108,307.53c-14.744,3.446-29.54-5.744-32.986-20.488
				c-3.446-14.744,5.744-29.54,20.489-32.986c14.744-3.446,29.539,5.744,32.986,20.489
				C223.043,289.289,213.853,304.086,199.108,307.53z M187.83,259.274c-11.865,2.773-19.264,14.684-16.491,26.549
				c2.773,11.866,14.684,19.265,26.55,16.491c11.865-2.773,19.263-14.684,16.491-26.55
				C211.607,263.898,199.697,256.501,187.83,259.274z"/>
		</g>
		<rect x="151.752" y="272.757" style="fill:#FAEBCB;" width="81.806" height="16.073"/>
		<circle style="fill:#FECD57;" cx="192.86" cy="280.794" r="14.734"/>
		
			<rect x="330.899" y="400.716" transform="matrix(0.9762 -0.2168 0.2168 0.9762 -85.019 82.8553)" style="fill:#FAEBCB;" width="8.415" height="56.378"/>
	</g>
</g>
</svg>
