<?xml version="1.0" encoding="utf-8"?>
<!-- Generator: Adobe Illustrator 17.0.0, SVG Export Plug-In . SVG Version: 6.00 Build 0)  -->
<!DOCTYPE svg PUBLIC "-//W3C//DTD SVG 1.1//EN" "http://www.w3.org/Graphics/SVG/1.1/DTD/svg11.dtd">
<svg version="1.1" xmlns="http://www.w3.org/2000/svg" xmlns:xlink="http://www.w3.org/1999/xlink" x="0px" y="0px" width="540px"
	 height="270px" viewBox="0 0 540 270" enable-background="new 0 0 540 270" xml:space="preserve">
<g id="Layer_2" display="none">
	<rect display="inline" fill="#D9E1E5" width="540" height="270"/>
</g>
<g id="Layer_1">
	<g>
		<g>
			<g>
				<g>
					<path fill="#56BA22" d="M211.454,176.466H68.021c-6.203,0-11.231-5.028-11.231-11.231v104.168L68.622,270h71.115h71.505
						c0,0,9.098,0,11.442,0V165.236C222.685,171.438,217.656,176.466,211.454,176.466z"/>
					<path fill="#94CE28" d="M139.738,150.652H68.622c-4.226,0-8.251,0.954-11.832,2.816v11.768c0,6.203,5.028,11.231,11.231,11.231
						h143.432c6.203,0,11.231-5.028,11.231-11.231v-11.768c-2.984-1.862-7.216-2.816-11.442-2.816H139.738z"/>
				</g>
				<g>
					<path fill="#FFFFFF" d="M90.121,179.892H76.762c-2.331,0-4.456,2.16-4.456,4.492v6.677c0,2.334,2.125,4.346,4.456,4.346h13.359
						c2.333,0,4.265-2.012,4.265-4.346v-6.677C94.385,182.052,92.454,179.892,90.121,179.892z M90.208,191.061
						c0,0.185,0.097,0.169-0.087,0.169H76.762c-0.184,0-0.279,0.016-0.279-0.169v-6.678c0-0.185,0.096-0.314,0.279-0.314H90.12
						c0.185,0,0.087,0.129,0.087,0.314V191.061z"/>
				</g>
				<g>
					<g>
						<path fill="#FFFFFF" d="M185.687,184.384v6.677c0,2.334,1.845,4.346,4.179,4.346h13.359c2.331,0,3.945-2.012,3.945-4.346
							v-6.677c0-2.332-1.614-4.492-3.945-4.492h-13.359C187.532,179.892,185.687,182.052,185.687,184.384z M189.267,184.384
							c0-0.185,0.414-0.314,0.598-0.314h13.358c0.184,0,0.365,0.129,0.365,0.314v6.678c0,0.185-0.181,0.169-0.365,0.169h-13.358
							c-0.185,0-0.598,0.016-0.598-0.169V184.384z"/>
					</g>
					<g>
						<polygon fill="#127045" points="77.08,200.778 77.08,269.403 89.611,269.403 89.611,200.778 89.611,190.037 77.08,190.037 
													"/>
						<polygon fill="#127045" points="190.461,190.037 190.461,200.778 190.461,269.403 202.992,269.403 202.992,200.778 
							202.992,190.037 						"/>
					</g>
					<path fill="#D13D3D" d="M202.78,175.118c0-34.611-28.431-62.931-63.043-62.931s-62.531,28.32-62.531,62.931H77.08v10.145
						h12.532v-10.145h0.067c0-27.45,22.609-50.016,50.059-50.016s50.57,22.566,50.57,50.016h0.153v10.145h12.532v-10.145H202.78z"/>
				</g>
				<g>
					<g>
						<path fill="#127045" d="M139.737,150.652h-5.967v85.002c0,3.338,2.984,6.045,5.967,6.045c3.58,0,6.564-2.707,6.564-6.045
							v-85.002H139.737z"/>
						<g>
							<g>
								<path fill="#FFFFFF" d="M145.768,186.456h-11.354c-2.331,0-4.224,2.185-4.224,4.517v13.357c0,2.334,1.893,4.205,4.224,4.205
									h11.354c2.333,0,4.114-1.871,4.114-4.205v-13.357C149.882,188.641,148.101,186.456,145.768,186.456z M146.302,204.33
									c0,0.185-0.349,0.625-0.534,0.625h-11.354c-0.184,0-0.047-0.44-0.047-0.625v-13.357c0-0.185-0.137-0.34,0.047-0.34h11.354
									c0.185,0,0.534,0.155,0.534,0.34V204.33z"/>
							</g>
							<path fill="#FFFFFF" d="M141.528,189.704c0-0.805-0.653-1.458-1.458-1.458h-0.068c-0.805,0-1.458,0.653-1.458,1.458v7.229
								c0,0.805,0.653,1.458,1.458,1.458h0.068c0.805,0,1.458-0.653,1.458-1.458V189.704z"/>
						</g>
					</g>
				</g>
				<g>
					<g>
						<path fill="#1B9B05" d="M37.416,211.209c0,37.832,5.706,48.48,19.375,58.306V153.467
							C43.122,163.293,37.416,173.093,37.416,211.209z"/>
					</g>
				</g>
				<g>
					<g>
						<path fill="#1B9B05" d="M242.059,211.209c0,37.832-5.706,48.48-19.375,58.306V153.467
							C236.353,163.293,242.059,173.093,242.059,211.209z"/>
					</g>
				</g>
				<circle fill="#FFFFFF" cx="83.442" cy="204.768" r="3.58"/>
				<circle fill="#FFFFFF" cx="196.544" cy="204.768" r="3.58"/>
			</g>
		</g>
		<g>
			<g>
				<g>
					<g>
						<g>
							<g>
								<path fill="#127045" d="M272.661,262.104c0,4.363-3.665,7.896-8.022,7.896l0,0c-4.365,0-8.027-3.533-8.027-7.896v-8.383
									c0-4.36,3.663-7.897,8.027-7.897l0,0c4.356,0,8.022,3.537,8.022,7.897V262.104z"/>
								<path fill="#127045" d="M350.609,262.104c0,4.363-3.316,7.896-7.673,7.896l0,0c-4.364,0-7.678-3.533-7.678-7.896v-8.383
									c0-4.36,3.314-7.897,7.678-7.897l0,0c4.356,0,7.673,3.537,7.673,7.897V262.104z"/>
								<path fill="#94CE28" d="M355.562,85h-65.988h-37.612C242.146,85,235,92.333,235,102.148v6.433v131.674
									c0,9.815,7.146,18.745,16.962,18.745h37.612h65.988c9.816,0,17.438-8.929,17.438-18.745V108.581v-6.433
									C373,92.333,365.379,85,355.562,85z"/>
							</g>
							<path fill="#1B9B05" d="M353.293,117h-63.719h-35.343c-4.301,0-7.232,0.421-7.232,4.722V229.57v5.487
								c0,3.042,1.472,5.249,4.017,6.531c1.051,0.529,1.957,0.413,3.214,0.413h35.297h63.765c1.255,0,1.896,0.117,2.945-0.409
								c2.549-1.28,3.761-3.489,3.761-6.534v-5.487V121.722C360,117.421,357.597,117,353.293,117z"/>
							<g>
								<path fill="#127045" d="M351.031,122.217c1.621,0,2.939,1.277,2.939,2.9l0,0c0,1.625-1.318,2.9-2.939,2.9h-94.677
									c-1.625,0-2.939-1.275-2.939-2.9l0,0c0-1.623,1.314-2.9,2.939-2.9H351.031z"/>
							</g>
							<path fill="#FFFFFF" d="M260.457,133.342c0,2.372-1.927,4.297-4.296,4.297c-2.405,0-4.298-1.657-4.298-4.297
								c0-2.373,1.924-8.225,4.298-8.225C258.53,125.117,260.457,130.969,260.457,133.342z"/>
						</g>
						<path fill="#FC7575" d="M325.122,42h-35.548h-0.477h-6.809C276.655,42,274,46.855,274,52.49V85h7V51.883
							c0-1.171-0.489,0.117,1.288,0.117h6.809h0.477h35.548c1.78,0,1.878-1.42,1.878,0.357V85h8V52.357
							C335,46.723,330.755,42,325.122,42z"/>
					</g>
					<path fill="#D13D3D" d="M315.492,40h-23.055l0,0c-2.939,0-3,2.93-3,6.379c0,3.451-0.071,5.621,2.868,5.621l0,0h23.183h0.004
						c3.502,0,3.078-2.498,3.078-6C318.57,42.498,318.994,40,315.492,40z"/>
				</g>
				<g>
					<g>
						<polygon fill="#FC7575" points="409.698,152.449 401.365,152.449 401.365,135.68 409.698,135.517 						"/>
						<rect x="427.67" y="135.68" fill="#FC7575" width="8.496" height="16.77"/>
						<path fill="#D13D3D" d="M438.69,135.504c-5.493-5.493-12.708-8.24-19.924-8.24c-7.215,0-14.431,2.746-19.924,8.24
							c-1.966,1.966-1.966,5.151,0,7.117c2.009,2.011,2.876,4.245,7.117,0c3.531-3.531,8.169-5.296,12.807-5.296
							c4.638,0,9.276,1.765,12.807,5.296c0.982,0.983,2.271,1.474,3.558,1.474s2.576-0.492,3.558-1.474
							C440.656,140.655,440.656,137.47,438.69,135.504z"/>
					</g>
					<g>
						<path fill="#56BA22" d="M502.584,240.547v-58.675c-16.267,0-29.453-13.187-29.453-29.453h-2.217h-52.148h-54.365
							c0,16.266-13.187,29.453-29.453,29.453v2.218v56.458c16.266,0,29.453,13.187,29.453,29.453h54.365h54.365
							C473.131,253.734,486.318,240.547,502.584,240.547z"/>
						<polygon fill="#3B7F0E" points="343.165,173.091 343.165,173.091 343.16,173.093 						"/>
						<polygon fill="#3B7F0E" points="355.84,160.04 355.836,160.051 355.836,160.051 						"/>
						<path fill="#3B7F0E" d="M356.261,263.65L356.261,263.65c0.001,0.006,0.003,0.011,0.004,0.017
							C356.264,263.662,356.263,263.656,356.261,263.65z"/>
					</g>
					<rect x="353.06" y="168.559" fill="#94CE28" width="131.412" height="85.3"/>
					<path fill="#127045" d="M364.401,152.419h-7.208v0.001c0,0-0.002,0.024-0.002,0.036c0-0.012,0.001-0.024,0.001-0.024v-0.013
						h-6.41l0,0.001h-9.18c-3.676,0-6.655,2.979-6.655,6.656v9.179v6.409h0v7.208C351.214,181.872,364.401,168.685,364.401,152.419z
						 M357.112,154.213c-0.012,0.147-0.027,0.292-0.042,0.438C357.085,154.505,357.1,154.36,357.112,154.213z M356.855,156.247
						c-0.008,0.046-0.013,0.092-0.022,0.137C356.841,156.339,356.847,156.293,356.855,156.247z M355.84,160.04
						c-0.001,0.003-0.002,0.007-0.002,0.007l-0.002,0.003C355.837,160.048,355.838,160.044,355.84,160.04z M336.872,174.571
						c0.147-0.013,0.294-0.026,0.44-0.042C337.166,174.545,337.019,174.559,336.872,174.571z M339.189,174.257
						c0.005-0.001,0.009-0.002,0.014-0.003C339.198,174.255,339.194,174.257,339.189,174.257z M341.033,173.809
						c0.112-0.032,0.224-0.064,0.335-0.097C341.257,173.745,341.145,173.777,341.033,173.809z M343.165,173.091
						c-0.002,0.001-0.004,0.001-0.005,0.002C343.161,173.093,343.163,173.092,343.165,173.091L343.165,173.091z"/>
					<path fill="#127045" d="M502.584,181.872v-7.208h-0.001v-6.409v-5.279v-3.901c0-3.675-2.98-6.656-6.656-6.656h-3.901h-11.687
						h-7.208C473.131,168.685,486.318,181.872,502.584,181.872z"/>
					<path fill="#127045" d="M334.948,240.547v7.208h0v7.285v0.514v7.79c0,3.676,2.98,6.656,6.655,6.656h9.18h2.101h4.309
						c0-0.028-0.003-0.055-0.003-0.083c0,0.028,0.003,0.055,0.003,0.083h7.208C364.401,253.734,351.214,240.547,334.948,240.547z
						 M356.261,263.65c0.002,0.006,0.003,0.012,0.004,0.017C356.264,263.661,356.262,263.656,356.261,263.65L356.261,263.65z"/>
					<path fill="#127045" d="M488.581,270h7.347c3.676,0,6.656-2.98,6.656-6.656v-9.745v-1.36v-4.484h0l0-7.208
						c-16.267,0-29.453,13.187-29.453,29.453h7.208H488.581z"/>
				</g>
			</g>
		</g>
	</g>
</g>
</svg>
